<?xml version="1.0" encoding="utf-8"?>
<!-- Generator: Adobe Illustrator 24.0.2, SVG Export Plug-In . SVG Version: 6.00 Build 0)  -->
<svg version="1.1" id="Layer_1" xmlns="http://www.w3.org/2000/svg" xmlns:xlink="http://www.w3.org/1999/xlink" x="0px" y="0px"
	 viewBox="0 0 254.2 254.2" style="enable-background:new 0 0 254.2 254.2;" xml:space="preserve">
<style type="text/css">
	.st0{fill:#414042;}
	.st1{fill:#FFFFFF;}
	.st2{fill:#C2B59B;}
	.st3{fill:#594A42;}
	.st4{fill:none;stroke:#000000;stroke-width:9;stroke-miterlimit:10;}
	.st5{fill:none;stroke:#000000;stroke-width:9.0567;stroke-miterlimit:10;}
	.st6{fill:#58595B;}
	.st7{fill:none;stroke:#000000;stroke-width:3;stroke-miterlimit:10;}
	.st8{fill:none;stroke:#000000;stroke-width:0.822;stroke-miterlimit:10;}
	.st9{fill:#808285;}
	.st10{fill:none;stroke:#000000;stroke-width:12;stroke-miterlimit:10;}
	.st11{fill:none;stroke:#000000;stroke-width:2;stroke-miterlimit:10;}
	.st12{fill:none;stroke:#000000;stroke-width:0.7374;stroke-miterlimit:10;}
	.st13{fill:#6D6E71;}
	.st14{fill:none;stroke:#808285;stroke-width:8;stroke-miterlimit:10;}
	.st15{fill:none;stroke:#808285;stroke-width:1.5;stroke-linecap:round;stroke-miterlimit:10;}
	.st16{fill:#F1F2F2;}
	.st17{fill:none;stroke:#FFFFFF;stroke-width:0.4991;stroke-linecap:round;stroke-linejoin:round;stroke-miterlimit:10;}
	.st18{fill:#E6E7E8;}
	.st19{fill:none;stroke:#FFFFFF;stroke-width:0.499;stroke-linecap:round;stroke-linejoin:round;stroke-miterlimit:10;}
	.st20{fill:none;stroke:#FFFFFF;stroke-width:0.6309;stroke-linecap:round;stroke-linejoin:round;stroke-miterlimit:10;}
	.st21{fill:none;stroke:#808285;stroke-width:0.5;stroke-miterlimit:10;}
	.st22{fill:none;stroke:#808285;stroke-width:2;stroke-miterlimit:10;}
	.st23{fill:none;stroke:#FFFFFF;stroke-width:3;stroke-linecap:round;stroke-linejoin:round;stroke-miterlimit:10;}
	.st24{fill:#99D608;}
	.st25{fill:none;stroke:#D1A185;stroke-width:0.75;}
	.st26{fill:#D1A185;}
</style>
<g>
	<path d="M74.3,196.2h-4.6v4.6c0,3.2-2.6,5.7-5.7,5.7c-3.2,0-5.7-2.6-5.7-5.7v-4.6h-4.6c-3.2,0-5.7-2.6-5.7-5.7
		c0-3.2,2.6-5.7,5.7-5.7h4.6v-4.6c0-3.2,2.6-5.7,5.7-5.7c3.2,0,5.7,2.6,5.7,5.7v4.6h4.6c3.2,0,5.7,2.6,5.7,5.7
		C80.1,193.6,77.5,196.2,74.3,196.2 M92.2,190c0-15.5-12.6-28.2-28.2-28.2c-7.8,0-15.7,3.7-21.1,9.5c-4.6,5.2-7.1,11.8-7.1,18.7
		c0,15.5,12.6,28.2,28.2,28.2c6.9,0,13.9-2.8,19.1-7.5C88.8,205.4,92.2,197.9,92.2,190"/>
	<path d="M127.1,123.2c6,0,10.8-4.9,10.8-10.9c0-6-4.9-10.8-10.8-10.8s-10.8,4.9-10.8,10.8C116.2,118.3,121.1,123.2,127.1,123.2"/>
	<path d="M127.1,133.9c-9.9,0-18.2,6.8-20.5,15.9h41.1C145.2,140.7,136.9,133.9,127.1,133.9"/>
	<path d="M153.6,160.5h-53.1c-3,0-5.3-2.4-5.3-5.3c0-12,6.6-22.4,16.4-27.9c-3.7-3.9-6-9.1-6-14.9c0-11.9,9.7-21.5,21.5-21.5
		c11.9,0,21.5,9.7,21.5,21.5c0,5.8-2.3,11-6,14.9c9.8,5.5,16.4,15.9,16.4,27.9C159,158.1,156.6,160.5,153.6,160.5 M191.6,62.5
		c-17.2-17.3-40.2-26.8-64.6-26.8c-24.4,0-47.3,9.5-64.6,26.8c-17.2,17.2-26.7,40.2-26.7,64.6c0,11.5,2.2,23,6.4,33.7
		c6.8-6.1,14.3-9.4,24.8-9.2c18.7,0.3,36.2,18.5,36,36.7c-0.1,9-2.2,17.7-8.1,24.4c10.2,3.9,21.2,5.9,32.2,5.9
		c24.4,0,47.3-9.5,64.6-26.7c17.2-17.3,26.7-40.2,26.7-64.6C218.4,102.7,208.9,79.8,191.6,62.5"/>
</g>
</svg>
