<?xml version="1.0" encoding="utf-8"?>
<!-- Generator: Adobe Illustrator 24.0.2, SVG Export Plug-In . SVG Version: 6.00 Build 0)  -->
<svg version="1.1" id="Layer_1" xmlns="http://www.w3.org/2000/svg" xmlns:xlink="http://www.w3.org/1999/xlink" x="0px" y="0px"
	 viewBox="0 0 254.2 254.2" style="enable-background:new 0 0 254.2 254.2;" xml:space="preserve">
<style type="text/css">
	.st0{fill:#414042;}
	.st1{fill:#FFFFFF;}
	.st2{fill:#C2B59B;}
	.st3{fill:#594A42;}
	.st4{fill:none;stroke:#000000;stroke-width:9;stroke-miterlimit:10;}
	.st5{fill:none;stroke:#000000;stroke-width:9.0567;stroke-miterlimit:10;}
	.st6{fill:#58595B;}
	.st7{fill:none;stroke:#000000;stroke-width:3;stroke-miterlimit:10;}
	.st8{fill:none;stroke:#000000;stroke-width:0.822;stroke-miterlimit:10;}
	.st9{fill:#808285;}
	.st10{fill:none;stroke:#000000;stroke-width:12;stroke-miterlimit:10;}
	.st11{fill:none;stroke:#000000;stroke-width:2;stroke-miterlimit:10;}
	.st12{fill:none;stroke:#000000;stroke-width:0.7374;stroke-miterlimit:10;}
	.st13{fill:#6D6E71;}
	.st14{fill:none;stroke:#808285;stroke-width:8;stroke-miterlimit:10;}
	.st15{fill:none;stroke:#808285;stroke-width:1.5;stroke-linecap:round;stroke-miterlimit:10;}
	.st16{fill:#F1F2F2;}
	.st17{fill:none;stroke:#FFFFFF;stroke-width:0.4991;stroke-linecap:round;stroke-linejoin:round;stroke-miterlimit:10;}
	.st18{fill:#E6E7E8;}
	.st19{fill:none;stroke:#FFFFFF;stroke-width:0.499;stroke-linecap:round;stroke-linejoin:round;stroke-miterlimit:10;}
	.st20{fill:none;stroke:#FFFFFF;stroke-width:0.6309;stroke-linecap:round;stroke-linejoin:round;stroke-miterlimit:10;}
	.st21{fill:none;stroke:#808285;stroke-width:0.5;stroke-miterlimit:10;}
	.st22{fill:none;stroke:#808285;stroke-width:2;stroke-miterlimit:10;}
	.st23{fill:none;stroke:#FFFFFF;stroke-width:3;stroke-linecap:round;stroke-linejoin:round;stroke-miterlimit:10;}
	.st24{fill:#99D608;}
	.st25{fill:none;stroke:#D1A185;stroke-width:0.75;}
	.st26{fill:#D1A185;}
</style>
<g>
	<path d="M106.8,84.3c7.3,0,13.2,5.9,13.2,13.2c0,7.3-5.9,13.2-13.2,13.2c-7.3,0-13.2-5.9-13.2-13.2C93.6,90.2,99.5,84.3,106.8,84.3
		"/>
	<path d="M207.6,193.7c-5.3,5.3-12.4,8.4-20.5,8.4c-7.7,0-14.8-3.1-19.9-8c-0.7-0.7-1.5-1.6-2.2-2.4c-0.5-0.5-1.1-1.3-1.6-1.8
		c-0.7-0.9-1.3-2-1.8-3.1c-0.4-0.7-0.7-1.3-1.1-2c-0.4-0.9-0.7-2-0.9-3.1c-0.2-0.7-0.5-1.6-0.7-2.4c-0.4-1.8-0.5-3.8-0.5-5.8
		c0-8,3.3-15.2,8.4-20.5c5.1-5.3,12.4-8.4,20.5-8.4c8,0,15.2,3.3,20.5,8.4c5.3,5.3,8.4,12.4,8.4,20.5
		C216,181.3,212.7,188.4,207.6,193.7 M60.2,193.7v-0.4c-4.4,0-8.4-1.8-11.3-4.8c-2.7-2.9-4.6-6.9-4.6-11.3v-17v-5.7l32.3-32.5
		l27.6,27.6c1.8,1.8,4.9,1.8,6.9,0l40.7-40.9l26.7,26.9c-0.5,0.2-1.1,0.4-1.6,0.5c-0.7,0.2-1.5,0.4-2.4,0.7
		c-0.7,0.2-1.5,0.5-2.2,0.7c-0.5,0.2-0.9,0.4-1.5,0.7c-0.7,0.4-1.3,0.5-1.8,0.9c-0.9,0.5-1.8,1.1-2.7,1.6c-0.5,0.4-0.9,0.5-1.5,0.9
		c-0.4,0.2-0.5,0.4-0.9,0.5c-1.6,1.1-3.1,2.4-4.4,3.8c-6.9,6.9-11.3,16.6-11.3,27.4c0,2.7,0.4,5.3,0.9,8c0.2,0.7,0.4,1.3,0.5,2
		c0.5,1.8,1.1,3.7,1.8,5.5v0.2c0.7,1.5,1.5,3.1,2.4,4.4H60.2z M44.3,68.2c0-4.4,1.8-8.4,4.8-11.1c2.9-2.9,6.9-4.8,11.3-4.8h105.9
		c4.4,0,8.4,1.8,11.3,4.8c2.9,2.9,4.8,6.9,4.8,11.3v57l-27-27c-1.8-1.8-4.9-2-6.9,0l-40.7,40.9l-27.6-27.8c-1.8-1.8-4.9-2-6.9,0
		l-28.9,29.2V68.2z M214.7,145.8c-6.2-5.8-14.1-9.7-22.7-10.8V68.2c0-7.1-2.9-13.5-7.5-18.3c-4.8-4.8-11.1-7.5-18.3-7.5H60.4
		c-7.1,0-13.5,2.9-18.3,7.5c-4.8,4.7-7.5,11.1-7.5,18.3v84.2v7.9v17c0,7.1,2.9,13.5,7.5,18.3c4.8,4.8,11.1,7.5,18.3,7.5h102.5
		c6.8,5.5,15.2,8.9,24.5,8.9c10.8,0,20.5-4.4,27.4-11.3c6.9-6.9,11.3-16.6,11.3-27.4C226.1,162.5,221.7,152.8,214.7,145.8"/>
	<path d="M190.6,153.7c-0.4-0.4-0.9-0.7-1.6-1.1c-0.5-0.2-1.1-0.4-1.6-0.4h-0.2H187c-0.5,0-1.1,0.2-1.6,0.4s-1.1,0.5-1.6,1.1
		L172.4,165c-1.8,1.8-1.8,4.9,0,6.9c1.8,1.8,4.9,1.8,6.9,0l2.9-2.9v20.1c0,2.7,2.2,4.9,4.9,4.9c2.7,0,4.9-2.2,4.9-4.9V169l2.9,2.9
		c1.8,1.8,4.9,1.8,6.9,0c1.8-1.8,1.8-4.9,0-6.9L190.6,153.7z"/>
</g>
</svg>
