<?xml version="1.0" encoding="utf-8"?>
<!-- Generator: Adobe Illustrator 24.0.2, SVG Export Plug-In . SVG Version: 6.00 Build 0)  -->
<svg version="1.1" id="Layer_1" xmlns="http://www.w3.org/2000/svg" xmlns:xlink="http://www.w3.org/1999/xlink" x="0px" y="0px"
	 viewBox="0 0 254.2 254.2" style="enable-background:new 0 0 254.2 254.2;" xml:space="preserve">
<style type="text/css">
	.st0{fill:#414042;}
	.st1{fill:#FFFFFF;}
	.st2{fill:#C2B59B;}
	.st3{fill:#594A42;}
	.st4{fill:none;stroke:#000000;stroke-width:9;stroke-miterlimit:10;}
	.st5{fill:none;stroke:#000000;stroke-width:9.0567;stroke-miterlimit:10;}
	.st6{fill:#58595B;}
	.st7{fill:none;stroke:#000000;stroke-width:3;stroke-miterlimit:10;}
	.st8{fill:none;stroke:#000000;stroke-width:0.822;stroke-miterlimit:10;}
	.st9{fill:#808285;}
	.st10{fill:none;stroke:#000000;stroke-width:12;stroke-miterlimit:10;}
	.st11{fill:none;stroke:#000000;stroke-width:2;stroke-miterlimit:10;}
	.st12{fill:none;stroke:#000000;stroke-width:0.7374;stroke-miterlimit:10;}
	.st13{fill:#6D6E71;}
	.st14{fill:none;stroke:#808285;stroke-width:8;stroke-miterlimit:10;}
	.st15{fill:none;stroke:#808285;stroke-width:1.5;stroke-linecap:round;stroke-miterlimit:10;}
	.st16{fill:#F1F2F2;}
	.st17{fill:none;stroke:#FFFFFF;stroke-width:0.4991;stroke-linecap:round;stroke-linejoin:round;stroke-miterlimit:10;}
	.st18{fill:#E6E7E8;}
	.st19{fill:none;stroke:#FFFFFF;stroke-width:0.499;stroke-linecap:round;stroke-linejoin:round;stroke-miterlimit:10;}
	.st20{fill:none;stroke:#FFFFFF;stroke-width:0.6309;stroke-linecap:round;stroke-linejoin:round;stroke-miterlimit:10;}
	.st21{fill:none;stroke:#808285;stroke-width:0.5;stroke-miterlimit:10;}
	.st22{fill:none;stroke:#808285;stroke-width:2;stroke-miterlimit:10;}
	.st23{fill:none;stroke:#FFFFFF;stroke-width:3;stroke-linecap:round;stroke-linejoin:round;stroke-miterlimit:10;}
	.st24{fill:#99D608;}
	.st25{fill:none;stroke:#D1A185;stroke-width:0.75;}
	.st26{fill:#D1A185;}
</style>
<g>
	<path class="st1" d="M79.8,157.1H59.7c-3.4,0-6.4-2.6-6.5-6.1c-0.2-3.6,2.7-6.6,6.3-6.6h20.1c3.4,0,6.4,2.6,6.5,6
		C86.3,154.1,83.4,157.1,79.8,157.1 M73,90.3h9.9c3.4,0,6.4,2.6,6.5,6c0.2,3.6-2.7,6.6-6.3,6.6h-9.9c-3.4,0-6.4-2.6-6.5-6.1
		C66.5,93.3,69.4,90.3,73,90.3 M97.9,183.7c0-47.7,0-53.6,0-53.7c-0.1,0-1.4,0-18,0c-3.4,0-6.4-2.6-6.5-6.1
		c-0.2-3.6,2.7-6.6,6.3-6.6c16.8,0,18.1,0,18.2,0c0,0,0-5.4,0-46.9c0-3.5,2.8-6.3,6.3-6.3h71.4c-16.7-17.4-40.1-27.9-65.5-27.9
		c-50.3,0-91.3,40.8-91.3,90.8c0,50.1,40.9,90.8,91.3,90.8c25.4,0,48.8-10.5,65.5-27.9h-71.4C100.8,190,97.9,187.2,97.9,183.7"/>
	<polygon class="st1" points="226.7,76.8 118.7,76.8 173.5,119 	"/>
	<path class="st1" d="M177.5,132c-2.3,1.8-5.5,1.8-7.8,0.1l-59.1-45.6V171c0,3.5,2.8,6.3,6.3,6.3h112c3.5,0,6.3-2.8,6.3-6.3V86.2
		L177.5,132z"/>
</g>
</svg>
