<?xml version="1.0" encoding="utf-8"?>
<!-- Generator: Adobe Illustrator 24.0.0, SVG Export Plug-In . SVG Version: 6.00 Build 0)  -->
<svg version="1.1" id="Layer_1" xmlns="http://www.w3.org/2000/svg" xmlns:xlink="http://www.w3.org/1999/xlink" x="0px" y="0px"
	 viewBox="0 0 336.2 56.74" style="enable-background:new 0 0 336.2 56.74;" xml:space="preserve">
<style type="text/css">
	.st0{fill:#FFFFFF;}
</style>
<g>
	<g>
		<path class="st0" d="M0,13.88h19.83v6.93H7.9v4.24h8.65v6.93H7.9v11.43H0V13.88z"/>
		<path class="st0" d="M66.66,22.91c0,2.02-0.5,3.75-1.51,5.19c-1.01,1.44-2.35,2.49-4.03,3.13l7.6,12.18h-9.07L53.6,33.2h-2.56
			v10.21h-7.81V13.88h12.14c2.41,0,4.35,0.29,5.82,0.88c1.47,0.59,2.61,1.33,3.42,2.23c0.81,0.9,1.36,1.88,1.64,2.94
			C66.52,20.99,66.66,21.99,66.66,22.91z M53.98,26.73c1.51,0,2.68-0.24,3.51-0.71c0.82-0.48,1.24-1.3,1.24-2.48
			c0-1.2-0.36-2.03-1.09-2.48c-0.73-0.45-1.85-0.67-3.36-0.67h-3.23v6.34H53.98z"/>
		<path class="st0" d="M107.45,38.11h-8.95l-1.51,5.29h-7.64l9.75-29.53h7.98l9.79,29.53h-7.9L107.45,38.11z M100.27,31.98h5.46
			l-2.69-9.49L100.27,31.98z"/>
		<path class="st0" d="M147.61,13.88l6.38,13.27l6.26-13.27h8.28v29.53h-6.85V26.35l-4.87,10.16h-6.05l-4.45-9.62v16.51h-6.85V13.88
			H147.61z"/>
		<path class="st0" d="M193.48,13.88h19.41v6.93h-11.51v3.91h8.57v6.93h-8.57v4.83h11.93v6.93h-19.83V13.88z"/>
		<path class="st0" d="M274.93,23.79c1.23,0,2.4,0.19,3.51,0.57s2.08,0.95,2.92,1.72c0.84,0.77,1.5,1.74,2,2.9
			c0.49,1.16,0.74,2.51,0.74,4.05c0,1.6-0.28,3.06-0.84,4.39c-0.56,1.33-1.39,2.49-2.48,3.47c-1.09,0.98-2.44,1.74-4.05,2.29
			c-1.61,0.55-3.47,0.82-5.57,0.82c-2.41,0-4.36-0.2-5.86-0.61c-1.5-0.41-2.54-0.8-3.13-1.2l1.6-6.01c0.62,0.22,1.48,0.5,2.6,0.84
			c1.12,0.34,2.6,0.5,4.45,0.5c1.63-0.03,2.94-0.39,3.95-1.09c1.01-0.7,1.51-1.85,1.51-3.44c0-0.92-0.33-1.72-0.99-2.37
			c-0.66-0.66-1.6-0.99-2.84-0.99c-1.06,0-2,0.18-2.79,0.52c-0.8,0.35-1.52,0.76-2.16,1.24l-4.12-2.98l1.76-14.53h17.39v6.34h-11.84
			l-0.46,4.28c0.31-0.14,0.9-0.29,1.79-0.46C272.89,23.87,273.86,23.79,274.93,23.79z"/>
		<path class="st0" d="M286.6,32.02l9.58-18.15h7.9l-9.2,17.43h4.24v-4.33h7.27v4.49h3.27v6.3h-3.27v5.63h-7.27v-5.63H286.6V32.02z"
			/>
	</g>
	<path class="st0" d="M323.65,56.74h-76.21V0.03h76.21V56.74z M253.24,50.94h64.61V5.83h-64.61V50.94z"/>
	<g>
		<g>
			<path class="st0" d="M333.82,3.57c0,0.32-0.08,0.6-0.24,0.83c-0.16,0.23-0.38,0.4-0.64,0.5l1.21,1.94h-1.45l-0.96-1.63h-0.41
				v1.63h-1.25V2.13h1.94c0.39,0,0.69,0.05,0.93,0.14c0.23,0.09,0.42,0.21,0.55,0.35c0.13,0.14,0.22,0.3,0.26,0.47
				C333.8,3.26,333.82,3.42,333.82,3.57z M331.8,4.18c0.24,0,0.43-0.04,0.56-0.11c0.13-0.08,0.2-0.21,0.2-0.4
				c0-0.19-0.06-0.32-0.17-0.4c-0.12-0.07-0.29-0.11-0.54-0.11h-0.52v1.01H331.8z"/>
		</g>
		<path class="st0" d="M335.42,8.81h-7.24c-0.43,0-0.79-0.35-0.79-0.79V0.79c0-0.43,0.35-0.79,0.79-0.79h7.24
			c0.43,0,0.79,0.35,0.79,0.79v7.23C336.2,8.45,335.85,8.81,335.42,8.81z M328.37,7.83h6.86V0.97h-6.86V7.83z"/>
	</g>
</g>
</svg>
