<?xml version="1.0" encoding="utf-8"?>
<!-- Generator: Adobe Illustrator 24.0.2, SVG Export Plug-In . SVG Version: 6.00 Build 0)  -->
<svg version="1.1" id="Layer_1" xmlns="http://www.w3.org/2000/svg" xmlns:xlink="http://www.w3.org/1999/xlink" x="0px" y="0px"
	 viewBox="0 0 254.2 254.2" style="enable-background:new 0 0 254.2 254.2;" xml:space="preserve">
<style type="text/css">
	.st0{fill:#414042;}
	.st1{fill:#FFFFFF;}
	.st2{fill:#C2B59B;}
	.st3{fill:#594A42;}
	.st4{fill:none;stroke:#000000;stroke-width:9;stroke-miterlimit:10;}
	.st5{fill:none;stroke:#000000;stroke-width:9.0567;stroke-miterlimit:10;}
	.st6{fill:#58595B;}
	.st7{fill:none;stroke:#000000;stroke-width:3;stroke-miterlimit:10;}
	.st8{fill:none;stroke:#000000;stroke-width:0.822;stroke-miterlimit:10;}
	.st9{fill:#808285;}
	.st10{fill:none;stroke:#000000;stroke-width:12;stroke-miterlimit:10;}
	.st11{fill:none;stroke:#000000;stroke-width:2;stroke-miterlimit:10;}
	.st12{fill:none;stroke:#000000;stroke-width:0.7374;stroke-miterlimit:10;}
	.st13{fill:#6D6E71;}
	.st14{fill:none;stroke:#808285;stroke-width:8;stroke-miterlimit:10;}
	.st15{fill:none;stroke:#808285;stroke-width:1.5;stroke-linecap:round;stroke-miterlimit:10;}
	.st16{fill:#F1F2F2;}
	.st17{fill:none;stroke:#FFFFFF;stroke-width:0.4991;stroke-linecap:round;stroke-linejoin:round;stroke-miterlimit:10;}
	.st18{fill:#E6E7E8;}
	.st19{fill:none;stroke:#FFFFFF;stroke-width:0.499;stroke-linecap:round;stroke-linejoin:round;stroke-miterlimit:10;}
	.st20{fill:none;stroke:#FFFFFF;stroke-width:0.6309;stroke-linecap:round;stroke-linejoin:round;stroke-miterlimit:10;}
	.st21{fill:none;stroke:#808285;stroke-width:0.5;stroke-miterlimit:10;}
	.st22{fill:none;stroke:#808285;stroke-width:2;stroke-miterlimit:10;}
	.st23{fill:none;stroke:#FFFFFF;stroke-width:3;stroke-linecap:round;stroke-linejoin:round;stroke-miterlimit:10;}
	.st24{fill:#99D608;}
	.st25{fill:none;stroke:#D1A185;stroke-width:0.75;}
	.st26{fill:#D1A185;}
</style>
<g>
	<path d="M126.7,122.3c-12.4,0-22.4-10-22.4-22.4c0-12.4,10.1-22.4,22.4-22.4c12.4,0,22.4,10.1,22.4,22.4S139,122.3,126.7,122.3
		 M126.7,68.6c-17.3,0-31.4,14-31.4,31.4s14,31.3,31.4,31.3c17.3,0,31.3-14.1,31.4-31.4C158,82.7,144,68.6,126.7,68.6"/>
	<path d="M165.5,181.3c-2.3-1-4.9,0-5.9,2.3c0,0.1,0,0.1-0.1,0.2l-8.6,22.9l-20-47.3l-4.9-11.7l0.6-0.5l9.1,7.6
		c4.2,3.5,10.3,2.9,13.8-1.2c1-1.2,1.7-2.5,2-3.9l2.9-11.6l11.5,0.8l22,52.1L165.5,181.3z M111.8,148c-0.2,0.2-0.5,0.3-0.8,0.1
		c-0.3-0.1-0.5-0.3-0.6-0.6l-3.8-15.2c-0.5-2-2.3-3.4-4.3-3.4H102l-15.6,1.1h-0.3l-0.1,0c-0.2-0.1-0.4-0.3-0.5-0.4
		c-0.1-0.2-0.1-0.4,0-0.7l5.9-14.5c0.8-2,0-4.3-1.8-5.5l-13.3-8.3c-0.3-0.2-0.4-0.4-0.4-0.8c0-0.3,0.1-0.6,0.4-0.7l13.3-8.3
		c1.8-1.2,2.6-3.4,1.8-5.4l-5.9-14.5c-0.2-0.4,0-0.9,0.5-1.1c0.1,0,0.2,0,0.4,0l15.6,1.1c2.1,0.1,4.1-1.3,4.6-3.4l3.8-15.2
		c0-0.3,0.3-0.5,0.6-0.6c0.3-0.1,0.6,0,0.8,0.2l12,10.1c1.7,1.4,4.1,1.4,5.8,0l12-10.1c0.2-0.2,0.5-0.3,0.8-0.2s0.5,0.3,0.6,0.6
		l3.8,15.2c0.5,2.1,2.5,3.5,4.6,3.4l15.6-1.1c0.5,0,0.9,0.3,0.9,0.8c0,0.1,0,0.2,0,0.4L162,85.5c-0.8,2,0,4.3,1.8,5.4l13.3,8.3
		c0.3,0.1,0.4,0.4,0.4,0.7c0,0.3-0.1,0.6-0.4,0.8l-13.3,8.3c-1.8,1.2-2.6,3.4-1.8,5.5l5.9,14.5c0.1,0.2,0.1,0.4,0,0.7
		c-0.1,0.2-0.3,0.4-0.5,0.4l-0.1,0c-0.1,0-0.2,0-0.3,0l-15.6-1.1c-2.2-0.1-4.1,1.2-4.6,3.4l-3.8,15.2c-0.1,0.3-0.3,0.5-0.6,0.6
		c-0.3,0.1-0.6,0-0.8-0.2l-12-10.1c-1.7-1.4-4.1-1.4-5.8,0L111.8,148z M102.4,206.7l-8.6-22.9c-0.9-2.3-3.4-3.5-5.8-2.6
		c-0.1,0-0.1,0-0.2,0.1l-22.4,9.8l22-52.1l11.5-0.8l2.9,11.6c0.8,3.3,3.3,5.9,6.5,7c1,0.3,2,0.5,3,0.5c2.3,0,4.5-0.8,6.3-2.3
		l1.3-1.1l2.9,6.9L102.4,206.7z M200.5,197.9l-26.2-62.1c0.7-0.8,1.3-1.6,1.7-2.5c1.1-2.4,1.2-5.2,0.1-7.7l-4.5-11l10.1-6.3
		c4.6-2.9,5.9-8.9,3.1-13.5c-0.8-1.3-1.8-2.3-3.1-3.1l-10.1-6.3l4.5-11c2-5-0.4-10.7-5.5-12.7c-1.4-0.5-2.9-0.8-4.3-0.7l-11.9,0.9
		l-2.9-11.5c-1.3-5.2-6.6-8.4-11.8-7.1c-1.5,0.4-2.8,1-4,2l-9.1,7.6l-9.1-7.6c-4.1-3.5-10.3-2.9-13.8,1.2c-1,1.2-1.7,2.5-2,4
		l-2.9,11.5L87,60.8c-5.4-0.4-10.1,3.7-10.5,9.1c-0.1,1.5,0.1,3,0.7,4.3l4.5,11l-10.1,6.3c-4.6,2.9-6,8.9-3.1,13.5
		c0.8,1.3,1.8,2.3,3.1,3.1l10.1,6.3l-4.5,11c-1,2.5-1,5.2,0.1,7.7c0.4,0.9,1,1.8,1.7,2.5l-26.2,62.1c-0.9,2.3,0.1,4.9,2.4,5.9
		c1.1,0.5,2.4,0.4,3.5,0L87,191.4l10.9,28.9c0.6,1.7,2.3,2.9,4.1,2.9h0.1c1.8,0,3.4-1.1,4.1-2.7l20.5-48.4l20.4,48.4
		c0.7,1.7,2.3,2.7,4.1,2.7h0.1c1.8,0,3.4-1.2,4.1-2.9l10.9-28.9l28.3,12.4c2.3,1,4.9,0,5.9-2.3C201,200.3,201,199,200.5,197.9"/>
</g>
</svg>
