<?xml version="1.0" encoding="utf-8"?>
<!-- Generator: Adobe Illustrator 24.0.2, SVG Export Plug-In . SVG Version: 6.00 Build 0)  -->
<svg version="1.1" id="Layer_1" xmlns="http://www.w3.org/2000/svg" xmlns:xlink="http://www.w3.org/1999/xlink" x="0px" y="0px"
	 viewBox="0 0 254.2 254.2" style="enable-background:new 0 0 254.2 254.2;" xml:space="preserve">
<style type="text/css">
	.st0{fill:#414042;}
	.st1{fill:#FFFFFF;}
	.st2{fill:#C2B59B;}
	.st3{fill:#594A42;}
	.st4{fill:none;stroke:#000000;stroke-width:9;stroke-miterlimit:10;}
	.st5{fill:none;stroke:#000000;stroke-width:9.0567;stroke-miterlimit:10;}
	.st6{fill:#58595B;}
	.st7{fill:none;stroke:#000000;stroke-width:3;stroke-miterlimit:10;}
	.st8{fill:none;stroke:#000000;stroke-width:0.822;stroke-miterlimit:10;}
	.st9{fill:#808285;}
	.st10{fill:none;stroke:#000000;stroke-width:12;stroke-miterlimit:10;}
	.st11{fill:none;stroke:#000000;stroke-width:2;stroke-miterlimit:10;}
	.st12{fill:none;stroke:#000000;stroke-width:0.7374;stroke-miterlimit:10;}
	.st13{fill:#6D6E71;}
	.st14{fill:none;stroke:#808285;stroke-width:8;stroke-miterlimit:10;}
	.st15{fill:none;stroke:#808285;stroke-width:1.5;stroke-linecap:round;stroke-miterlimit:10;}
	.st16{fill:#F1F2F2;}
	.st17{fill:none;stroke:#FFFFFF;stroke-width:0.4991;stroke-linecap:round;stroke-linejoin:round;stroke-miterlimit:10;}
	.st18{fill:#E6E7E8;}
	.st19{fill:none;stroke:#FFFFFF;stroke-width:0.499;stroke-linecap:round;stroke-linejoin:round;stroke-miterlimit:10;}
	.st20{fill:none;stroke:#FFFFFF;stroke-width:0.6309;stroke-linecap:round;stroke-linejoin:round;stroke-miterlimit:10;}
	.st21{fill:none;stroke:#808285;stroke-width:0.5;stroke-miterlimit:10;}
	.st22{fill:none;stroke:#808285;stroke-width:2;stroke-miterlimit:10;}
	.st23{fill:none;stroke:#FFFFFF;stroke-width:3;stroke-linecap:round;stroke-linejoin:round;stroke-miterlimit:10;}
	.st24{fill:#99D608;}
	.st25{fill:none;stroke:#D1A185;stroke-width:0.75;}
	.st26{fill:#D1A185;}
</style>
<g>
	
		<ellipse transform="matrix(0.7071 -0.7071 0.7071 0.7071 -55.1594 131.0085)" class="st25" cx="130.6" cy="132.1" rx="104.7" ry="104.7"/>
	<path class="st26" d="M110.9,99.7c-1.1,0-2.1-0.4-2.8-1.3c-1.4-1.6-1.2-4,0.4-5.3c0.8-0.7,1.3-1.7,1.2-2.6c-0.1-1-0.8-2-1.9-2.6
		c-3.2-1.9-5.3-4.9-5.6-8.4c-0.3-3.4,1-6.7,3.7-9c1.6-1.4,3.9-1.2,5.3,0.4c1.4,1.6,1.2,4-0.4,5.3c-0.8,0.7-1.3,1.7-1.2,2.6
		c0.1,1,0.8,2,1.9,2.6c3.2,1.9,5.3,4.9,5.6,8.4c0.3,3.4-1,6.7-3.7,9C112.7,99.4,111.8,99.7,110.9,99.7"/>
	<path class="st26" d="M136,99.7c-1.1,0-2.1-0.4-2.8-1.3c-1.4-1.6-1.2-4,0.4-5.3c0.8-0.7,1.3-1.7,1.2-2.6c-0.1-1-0.8-2-1.9-2.6
		c-3.2-1.9-5.3-4.9-5.6-8.4c-0.3-3.4,1-6.7,3.7-9c1.6-1.4,3.9-1.2,5.3,0.4c1.4,1.6,1.2,4-0.4,5.3c-0.8,0.7-1.3,1.7-1.2,2.6
		c0.1,1,0.8,2,1.9,2.6c3.2,1.9,5.3,4.9,5.6,8.4c0.3,3.4-1,6.7-3.7,9C137.8,99.4,136.9,99.7,136,99.7"/>
	<path class="st26" d="M158.6,190.2H85.7c-7.6,0-13.8-6.2-13.8-13.8v-5c0-2.1,1.7-3.8,3.8-3.8h93c2.1,0,3.8,1.7,3.8,3.8v5
		C172.4,184,166.2,190.2,158.6,190.2"/>
	<path class="st26" d="M91,162.6h62.4c2.7-2.6,5.2-5.6,7.2-8.9c0.1-0.2,0.2-0.3,0.4-0.5c4.2-7,6.4-15.1,6.4-23.3v-18.8
		c0-2.1-1.7-3.8-3.8-3.8H80.7c-2.1,0-3.8,1.7-3.8,3.8v18.8C77,142.7,82.4,154.3,91,162.6"/>
	<path class="st26" d="M172.4,116.1v10c5.5,0,10,4.5,10,10c0,2.7-1,5.2-3,7.1c-1.9,1.9-4.4,2.9-7.1,2.9h-2.8
		c-1.1,3.3-2.5,6.5-4.3,9.5c-0.1,0.2-0.2,0.3-0.4,0.5h7.5c5.4,0,10.5-2.1,14.2-5.9c3.8-3.8,5.9-8.8,5.9-14.2
		C192.5,125.1,183.5,116.1,172.4,116.1"/>
</g>
</svg>
