<?xml version="1.0" encoding="utf-8"?>
<!-- Generator: Adobe Illustrator 24.0.2, SVG Export Plug-In . SVG Version: 6.00 Build 0)  -->
<svg version="1.1" id="Layer_1" xmlns="http://www.w3.org/2000/svg" xmlns:xlink="http://www.w3.org/1999/xlink" x="0px" y="0px"
	 viewBox="0 0 254.2 254.2" style="enable-background:new 0 0 254.2 254.2;" xml:space="preserve">
<style type="text/css">
	.st0{fill:#414042;}
	.st1{fill:#FFFFFF;}
	.st2{fill:#C2B59B;}
	.st3{fill:#594A42;}
	.st4{fill:none;stroke:#000000;stroke-width:9;stroke-miterlimit:10;}
	.st5{fill:none;stroke:#000000;stroke-width:9.0567;stroke-miterlimit:10;}
	.st6{fill:#58595B;}
	.st7{fill:none;stroke:#000000;stroke-width:3;stroke-miterlimit:10;}
	.st8{fill:none;stroke:#000000;stroke-width:0.822;stroke-miterlimit:10;}
	.st9{fill:#808285;}
	.st10{fill:none;stroke:#000000;stroke-width:12;stroke-miterlimit:10;}
	.st11{fill:none;stroke:#000000;stroke-width:2;stroke-miterlimit:10;}
	.st12{fill:none;stroke:#000000;stroke-width:0.7374;stroke-miterlimit:10;}
	.st13{fill:#6D6E71;}
	.st14{fill:none;stroke:#808285;stroke-width:8;stroke-miterlimit:10;}
	.st15{fill:none;stroke:#808285;stroke-width:1.5;stroke-linecap:round;stroke-miterlimit:10;}
	.st16{fill:#F1F2F2;}
	.st17{fill:none;stroke:#FFFFFF;stroke-width:0.4991;stroke-linecap:round;stroke-linejoin:round;stroke-miterlimit:10;}
	.st18{fill:#E6E7E8;}
	.st19{fill:none;stroke:#FFFFFF;stroke-width:0.499;stroke-linecap:round;stroke-linejoin:round;stroke-miterlimit:10;}
	.st20{fill:none;stroke:#FFFFFF;stroke-width:0.6309;stroke-linecap:round;stroke-linejoin:round;stroke-miterlimit:10;}
	.st21{fill:none;stroke:#808285;stroke-width:0.5;stroke-miterlimit:10;}
	.st22{fill:none;stroke:#808285;stroke-width:2;stroke-miterlimit:10;}
	.st23{fill:none;stroke:#FFFFFF;stroke-width:3;stroke-linecap:round;stroke-linejoin:round;stroke-miterlimit:10;}
	.st24{fill:#99D608;}
	.st25{fill:none;stroke:#D1A185;stroke-width:0.75;}
	.st26{fill:#D1A185;}
</style>
<g>
	<path d="M101,227.2c14,20.7,43.9,20.7,57.9,0H101z"/>
	<path d="M210,163.9l-12.5-12.5c-2.6-2.6-4.2-6.1-4.6-9.7c0-0.1,0.4,3.5-9.3-77.3c-1.3-13.3-7.5-25.6-17.3-34.7
		c-10.4-9.6-23.4-14.3-36.2-14.3c-12.9-0.1-25.8,4.6-36.2,14.3c-9.8,9.1-16,21.4-17.3,34.7c-9.7,80.8-9.3,77.2-9.3,77.3
		c-0.4,3.7-2,7.1-4.6,9.7l-12.5,12.5c-5.5,5.5-8.6,12.9-8.6,20.7c0,16.1,13.1,29.3,29.3,29.3h0.2h118h0.2
		c16.1,0,29.3-13.1,29.3-29.3C218.6,176.7,215.5,169.4,210,163.9"/>
</g>
</svg>
